<svg xmlns="http://www.w3.org/2000/svg" xmlns:xlink="http://www.w3.org/1999/xlink" version="1.1" x="0px" y="0px" viewBox="0 0 100 100" enable-background="new 0 0 100 100" xml:space="preserve" fill="white"><rect width="100%" height="100%" fill="#1b2832"/><g><path d="M28.312,17.329l-1.463-2.619c-3.49,1.949-6.594,4.68-8.979,7.899l2.411,1.785   C22.414,21.515,25.191,19.072,28.312,17.329z"/><path d="M91.676,83.241L70.039,61.604l-2.121,2.121l0.988,0.988l-5.379,5.379l-2.946-2.946   c8.614-6.225,14.234-16.346,14.234-27.761c0-18.88-15.36-34.24-34.24-34.24s-34.24,15.36-34.24,34.24   c0,18.879,15.36,34.24,34.24,34.24c6.369,0,12.334-1.753,17.447-4.795l24.032,24.032c1.285,1.285,2.993,1.993,4.811,1.993   s3.525-0.708,4.811-1.993C94.328,90.21,94.328,85.893,91.676,83.241z M9.335,39.385c0-17.226,14.014-31.24,31.24-31.24   s31.24,14.014,31.24,31.24s-14.015,31.24-31.24,31.24S9.335,56.611,9.335,39.385z M89.554,90.741c-1.438,1.438-3.941,1.438-5.379,0   L65.648,72.214l5.379-5.379l18.527,18.527c0.719,0.719,1.114,1.674,1.114,2.689S90.273,90.022,89.554,90.741z"/><path d="M33.971,15.021l-0.785-2.896c-1.198,0.325-2.389,0.735-3.539,1.219l1.164,2.765   C31.838,15.677,32.901,15.311,33.971,15.021z"/><path d="M60.794,17.912c-11.469-1.729-23.198,2.126-31.385,10.314c-8.182,8.182-12.034,19.911-10.305,31.376   l1.261,1.26c1.799,0.27,3.605,0.402,5.402,0.402c9.653,0,19.069-3.822,25.963-10.717c8.175-8.175,12.034-19.903,10.323-31.374   L60.794,17.912z M49.609,48.427c-6.78,6.78-16.214,10.321-25.732,9.783L48.74,33.347l-2.121-2.121L21.747,56.098   c-0.59-9.609,2.889-18.857,9.783-25.751c7.252-7.252,17.535-10.802,27.704-9.617C60.436,31.034,56.962,41.073,49.609,48.427z"/></g></svg>